<svg width="170px" height="143px" xmlns="http://www.w3.org/2000/svg" xml:space="preserve" enable-background="new 0 0 1024 560" version="1.1" transform="rotate(0) scale(1, 1)">

 <g>
  <title>Layer 1</title>
  <path stroke="null" id="svg_1" d="m0.21683,120.08878c7.54118,-10.63099 18.32834,-16.14585 29.67113,-20.95224c-0.9089,-2.44699 -2.87922,-3.54862 -4.41585,-4.96195c-13.41524,-12.33865 -18.65007,-27.98328 -18.50611,-45.75775c0.05402,-6.66962 0.98131,-7.60858 7.53188,-7.72186c14.871,-0.25725 28.74269,3.02707 40.89567,12.07626c1.02456,0.76291 1.88205,1.94473 3.85303,1.707c0.43054,-3.63077 0.93675,-7.35464 1.30408,-11.09216c1.53276,-15.59538 8.87688,-28.43436 19.09537,-39.81592c4.35063,-4.84582 5.09849,-4.67056 9.97375,-0.00998c13.20709,12.62558 20.78571,27.88551 21.65607,46.28815c0.06097,1.28912 -0.22559,2.71036 1.25616,3.86203c2.77277,-0.35483 4.85437,-2.41407 7.15683,-3.88638c11.943,-7.63706 25.20359,-10.00893 39.0824,-10.21727c4.09061,-0.06141 5.45316,1.72761 5.57388,5.71925c0.57761,19.10229 -4.67379,35.82846 -19.18875,48.97754c-0.61364,0.55591 -1.17535,1.17758 -1.70019,1.8186c-0.19202,0.2345 -0.20639,0.61447 -0.31247,0.96332c1.07388,1.96741 3.19015,2.23947 4.99701,2.96564c8.39941,3.37564 15.27435,8.71591 20.789,15.87197c1.90597,2.47333 1.97662,4.51694 -0.29541,7.02237c-18.98508,20.93543 -47.21924,24.83271 -71.00379,9.42566c-5.71527,-3.70224 -10.90556,-8.20672 -16.43416,-12.20843c-3.36718,-2.43726 -6.82946,-4.77072 -10.40425,-6.88883c-16.62202,-9.84866 -32.47841,-7.3908 -47.68385,3.29099c-4.81488,3.38251 -4.78328,5.12222 -0.01921,8.5654c15.41293,11.13934 31.54968,13.4436 48.62112,3.83368c0.94585,-0.53244 1.83358,-1.5401 3.14873,-0.82932c0.6648,1.55631 -0.67636,2.0893 -1.48451,2.75125c-21.44594,17.56845 -51.9453,15.26746 -70.79526,-5.34665c-1.3056,-1.42776 -3.03821,-2.74557 -2.3623,-5.45037m77.4777,-87.26165c-8.31819,14.7333 -11.36052,29.56533 -2.47889,45.44084c4.98182,8.90485 6.89432,19.05585 9.19417,28.95249c0.26391,1.13562 1.20887,2.5556 -0.53299,3.52988c-1.91657,-0.66874 -1.96685,-2.54526 -2.55759,-3.98886c-4.105,-10.03138 -8.13399,-20.14283 -14.71819,-28.85419c-9.79243,-12.95609 -23.10359,-19.73505 -39.1945,-21.15625c-2.62285,-0.23166 -5.12065,-0.27869 -4.5537,3.79977c1.82642,13.13852 7.20389,24.48517 16.52651,33.94983c1.83969,1.86777 3.9033,2.93863 6.63847,2.85108c6.09935,-0.19526 11.82724,1.50296 17.47228,3.64651c10.0329,3.80978 17.68896,11.12027 26.05276,17.41266c11.4521,8.61581 23.81224,15.02127 38.73387,12.93573c9.41739,-1.31625 17.33487,-5.9548 24.27658,-12.77371c-7.62579,-7.91718 -16.52981,-11.79184 -26.60415,-13.85346c-10.4765,-2.14389 -19.55109,2.3309 -28.94785,5.61539c3.35858,-5.064 15.53507,-12.07819 23.74658,-12.71103c8.36619,-0.64477 13.3111,-5.13791 17.5235,-11.52817c4.92438,-7.47037 8.51804,-15.39239 9.63642,-24.3782c0.68213,-5.48047 0.07443,-6.40708 -5.21781,-5.60651c-16.95224,2.56433 -30.82178,10.16037 -40.3685,24.84247c-5.02151,7.72266 -9.05794,15.90112 -12.25308,24.53058c-0.55768,1.50613 -0.38431,3.76755 -2.96313,4.12216c-0.65534,-1.703 -0.47425,-3.37039 -0.10997,-4.97202c2.29049,-10.07034 4.13571,-20.39544 9.70967,-29.26147c6.85031,-10.89618 5.79284,-21.92215 1.44153,-33.00375c-2.82892,-7.20446 -6.50928,-14.08284 -12.64858,-19.49332c-3.39931,2.84793 -5.16269,6.28771 -7.80341,9.95155z" fill="#553858"/>
  <path stroke="null" id="svg_10" d="m0.21683,120.08878c7.54118,-10.63099 18.32834,-16.14585 29.67113,-20.95224c-0.9089,-2.44699 -2.87922,-3.54862 -4.41585,-4.96195c-13.41524,-12.33865 -18.65007,-27.98328 -18.50611,-45.75775c0.05402,-6.66962 0.98131,-7.60858 7.53188,-7.72186c14.871,-0.25725 28.74269,3.02707 40.89567,12.07626c1.02456,0.76291 1.88205,1.94473 3.85303,1.707c0.43054,-3.63077 0.93675,-7.35464 1.30408,-11.09216c1.53276,-15.59538 8.87688,-28.43436 19.09537,-39.81592c4.35063,-4.84582 5.09849,-4.67056 9.97375,-0.00998c13.20709,12.62558 20.78571,27.88551 21.65607,46.28815c0.06097,1.28912 -0.22559,2.71036 1.25616,3.86203c2.77277,-0.35483 4.85437,-2.41407 7.15683,-3.88638c11.943,-7.63706 25.20359,-10.00893 39.0824,-10.21727c4.09061,-0.06141 5.45316,1.72761 5.57388,5.71925c0.57761,19.10229 -4.67379,35.82846 -19.18875,48.97754c-0.61364,0.55591 -1.17535,1.17758 -1.70019,1.8186c-0.19202,0.2345 -0.20639,0.61447 -0.31247,0.96332c1.07388,1.96741 3.19015,2.23947 4.99701,2.96564c8.39941,3.37564 15.27435,8.71591 20.789,15.87197c1.90597,2.47333 1.97662,4.51694 -0.29541,7.02237c-18.98508,20.93543 -47.21924,24.83271 -71.00379,9.42566c-5.71527,-3.70224 -10.90556,-8.20672 -16.43416,-12.20843c-3.36718,-2.43726 -6.82946,-4.77072 -10.40425,-6.88883c-16.62202,-9.84866 -32.47841,-7.3908 -47.68385,3.29099c-4.81488,3.38251 -4.78328,5.12222 -0.01921,8.5654c15.41293,11.13934 31.54968,13.4436 48.62112,3.83368c0.94585,-0.53244 1.83358,-1.5401 3.14873,-0.82932c0.6648,1.55631 -0.67636,2.0893 -1.48451,2.75125c-21.44594,17.56845 -51.9453,15.26746 -70.79526,-5.34665c-1.3056,-1.42776 -3.03821,-2.74557 -2.3623,-5.45037m77.4777,-87.26165c-8.31819,14.7333 -11.36052,29.56533 -2.47889,45.44084c4.98182,8.90485 6.89432,19.05585 9.19417,28.95249c0.26391,1.13562 1.20887,2.5556 -0.53299,3.52988c-1.91657,-0.66874 -1.96685,-2.54526 -2.55759,-3.98886c-4.105,-10.03138 -8.13399,-20.14283 -14.71819,-28.85419c-9.79243,-12.95609 -23.10359,-19.73505 -39.1945,-21.15625c-2.62285,-0.23166 -5.12065,-0.27869 -4.5537,3.79977c1.82642,13.13852 7.20389,24.48517 16.52651,33.94983c1.83969,1.86777 3.9033,2.93863 6.63847,2.85108c6.09935,-0.19526 11.82724,1.50296 17.47228,3.64651c10.0329,3.80978 17.68896,11.12027 26.05276,17.41266c11.4521,8.61581 23.81224,15.02127 38.73387,12.93573c9.41739,-1.31625 17.33487,-5.9548 24.27658,-12.77371c-7.62579,-7.91718 -16.52981,-11.79184 -26.60415,-13.85346c-10.4765,-2.14389 -19.55109,2.3309 -28.94785,5.61539c3.35858,-5.064 15.53507,-12.07819 23.74658,-12.71103c8.36619,-0.64477 13.3111,-5.13791 17.5235,-11.52817c4.92438,-7.47037 8.51804,-15.39239 9.63642,-24.3782c0.68213,-5.48047 0.07443,-6.40708 -5.21781,-5.60651c-16.95224,2.56433 -30.82178,10.16037 -40.3685,24.84247c-5.02151,7.72266 -9.05794,15.90112 -12.25308,24.53058c-0.55768,1.50613 -0.38431,3.76755 -2.96313,4.12216c-0.65534,-1.703 -0.47425,-3.37039 -0.10997,-4.97202c2.29049,-10.07034 4.13571,-20.39544 9.70967,-29.26147c6.85031,-10.89618 5.79284,-21.92215 1.44153,-33.00375c-2.82892,-7.20446 -6.50928,-14.08284 -12.64858,-19.49332c-3.39931,2.84793 -5.16269,6.28771 -7.80341,9.95155z" fill="#553858"/>
  <path stroke="null" id="svg_11" d="m0.15126,120.08878c7.54118,-10.63099 18.32834,-16.14585 29.67113,-20.95224c-0.9089,-2.44699 -2.87922,-3.54862 -4.41585,-4.96195c-13.41524,-12.33865 -18.65007,-27.98328 -18.50611,-45.75775c0.05402,-6.66962 0.98131,-7.60858 7.53188,-7.72186c14.871,-0.25725 28.74269,3.02707 40.89567,12.07626c1.02456,0.76291 1.88205,1.94473 3.85303,1.707c0.43054,-3.63077 0.93675,-7.35464 1.30408,-11.09216c1.53276,-15.59538 8.87688,-28.43436 19.09537,-39.81592c4.35063,-4.84582 5.09849,-4.67056 9.97375,-0.00998c13.20709,12.62558 20.78571,27.88551 21.65607,46.28815c0.06097,1.28912 -0.22559,2.71036 1.25616,3.86203c2.77277,-0.35483 4.85437,-2.41407 7.15683,-3.88638c11.943,-7.63706 25.20359,-10.00893 39.0824,-10.21727c4.09061,-0.06141 5.45316,1.72761 5.57388,5.71925c0.57761,19.10229 -4.67379,35.82846 -19.18875,48.97754c-0.61364,0.55591 -1.17535,1.17758 -1.70019,1.8186c-0.19202,0.2345 -0.20639,0.61447 -0.31247,0.96332c1.07388,1.96741 3.19015,2.23947 4.99701,2.96564c8.39941,3.37564 15.27435,8.71591 20.789,15.87197c1.90597,2.47333 1.97662,4.51694 -0.29541,7.02237c-18.98508,20.93543 -47.21924,24.83271 -71.00379,9.42566c-5.71527,-3.70224 -10.90556,-8.20672 -16.43416,-12.20843c-3.36718,-2.43726 -6.82946,-4.77072 -10.40425,-6.88883c-16.62202,-9.84866 -32.47841,-7.3908 -47.68385,3.29099c-4.81488,3.38251 -4.78328,5.12222 -0.01921,8.5654c15.41293,11.13934 31.54968,13.4436 48.62112,3.83368c0.94585,-0.53244 1.83358,-1.5401 3.14873,-0.82932c0.6648,1.55631 -0.67636,2.0893 -1.48451,2.75125c-21.44594,17.56845 -51.9453,15.26746 -70.79526,-5.34665c-1.3056,-1.42776 -3.03821,-2.74557 -2.3623,-5.45037m77.4777,-87.26165c-8.31819,14.7333 -11.36052,29.56533 -2.47889,45.44084c4.98182,8.90485 6.89432,19.05585 9.19417,28.95249c0.26391,1.13562 1.20887,2.5556 -0.53299,3.52988c-1.91657,-0.66874 -1.96685,-2.54526 -2.55759,-3.98886c-4.105,-10.03138 -8.13399,-20.14283 -14.71819,-28.85419c-9.79243,-12.95609 -23.10359,-19.73505 -39.1945,-21.15625c-2.62285,-0.23166 -5.12065,-0.27869 -4.5537,3.79977c1.82642,13.13852 7.20389,24.48517 16.52651,33.94983c1.83969,1.86777 3.9033,2.93863 6.63847,2.85108c6.09935,-0.19526 11.82724,1.50296 17.47228,3.64651c10.0329,3.80978 17.68896,11.12027 26.05276,17.41266c11.4521,8.61581 23.81224,15.02127 38.73387,12.93573c9.41739,-1.31625 17.33487,-5.9548 24.27658,-12.77371c-7.62579,-7.91718 -16.52981,-11.79184 -26.60415,-13.85346c-10.4765,-2.14389 -19.55109,2.3309 -28.94785,5.61539c3.35858,-5.064 15.53507,-12.07819 23.74658,-12.71103c8.36619,-0.64477 13.3111,-5.13791 17.5235,-11.52817c4.92438,-7.47037 8.51804,-15.39239 9.63642,-24.3782c0.68213,-5.48047 0.07443,-6.40708 -5.21781,-5.60651c-16.95224,2.56433 -30.82178,10.16037 -40.3685,24.84247c-5.02151,7.72266 -9.05794,15.90112 -12.25308,24.53058c-0.55768,1.50613 -0.38431,3.76755 -2.96313,4.12216c-0.65534,-1.703 -0.47425,-3.37039 -0.10997,-4.97202c2.29049,-10.07034 4.13571,-20.39544 9.70967,-29.26147c6.85031,-10.89618 5.79284,-21.92215 1.44153,-33.00375c-2.82892,-7.20446 -6.50928,-14.08284 -12.64858,-19.49332c-3.39931,2.84793 -5.16269,6.28771 -7.80341,9.95155z" fill="#553858"/>
 </g>
</svg>